<svg width="26" height="26" viewBox="0 0 26 26" fill="none" xmlns="http://www.w3.org/2000/svg">
<path d="M18.0383 1H7.96195C6.99072 1 6.19989 1.79083 6.19989 2.76206V23.2383C6.19989 24.21 6.99072 25.0008 7.96195 25.0008H18.0379C19.0095 25.0008 19.8003 24.21 19.8003 23.2387V2.76206C19.8003 1.79083 19.0095 1 18.0383 1ZM6.99992 4.20011H19.0003V19.4006H6.99992V4.20011ZM7.96195 1.80003H18.0379C18.5687 1.80003 19.0003 2.23164 19.0003 2.76206V3.40008H6.99992V2.76206C6.99992 2.23164 7.43153 1.80003 7.96195 1.80003ZM18.0383 24.2008H7.96195C7.43153 24.2008 6.99992 23.7691 6.99992 23.2387V20.2006H19.0003V23.2387C19.0003 23.7691 18.5687 24.2008 18.0383 24.2008Z" fill="#EDA900" stroke="#DC2D2D" stroke-width="0.5"/>
<path d="M13.0001 20.6007C12.1177 20.6007 11.4001 21.3184 11.4001 22.2008C11.4001 23.0832 12.1177 23.8009 13.0001 23.8009C13.8826 23.8009 14.6002 23.0832 14.6002 22.2008C14.6002 21.3184 13.8826 20.6007 13.0001 20.6007ZM13.0001 23.0008C12.5589 23.0008 12.2001 22.642 12.2001 22.2008C12.2001 21.7596 12.5589 21.4008 13.0001 21.4008C13.4414 21.4008 13.8002 21.7596 13.8002 22.2008C13.8002 22.642 13.4414 23.0008 13.0001 23.0008Z" fill="#EDA900" stroke="#DC2D2D" stroke-width="0.5"/>
<path d="M11.4 3.00006H13.0001C13.2213 3.00006 13.4001 2.82125 13.4001 2.60005C13.4001 2.37884 13.2213 2.20003 13.0001 2.20003H11.4C11.1788 2.20003 11 2.37884 11 2.60005C11 2.82125 11.1788 3.00006 11.4 3.00006Z" fill="#EDA900" stroke="#DC2D2D" stroke-width="0.5"/>
<path d="M14.2001 3.00006H14.6001C14.8213 3.00006 15.0001 2.82125 15.0001 2.60005C15.0001 2.37884 14.8213 2.20003 14.6001 2.20003H14.2001C13.9789 2.20003 13.8001 2.37884 13.8001 2.60005C13.8001 2.82125 13.9789 3.00006 14.2001 3.00006Z" fill="#EDA900" stroke="#DC2D2D" stroke-width="0.5"/>
<path d="M23.6451 2.82759C23.4887 2.67118 23.2359 2.67118 23.0795 2.82759C22.9231 2.984 22.9231 3.2368 23.0795 3.39321C24.574 4.88766 24.574 7.31934 23.0795 8.81419C22.9231 8.97059 22.9231 9.2234 23.0795 9.37981C23.1575 9.45781 23.2599 9.49701 23.3623 9.49701C23.4647 9.49701 23.5671 9.45781 23.6451 9.37981C25.4516 7.57375 25.4516 4.63405 23.6451 2.82759Z" fill="#EDA900" stroke="#DC2D2D" stroke-width="0.5"/>
<path d="M21.9606 3.73807C21.8042 3.58167 21.5514 3.58167 21.395 3.73807C21.2385 3.89448 21.2385 4.14729 21.395 4.30369C21.8898 4.79851 22.1622 5.45773 22.1622 6.15935C22.1622 6.86098 21.8898 7.5198 21.395 8.01461C21.2385 8.17102 21.2385 8.42383 21.395 8.58023C21.473 8.65824 21.5754 8.69744 21.6778 8.69744C21.7802 8.69744 21.8826 8.65824 21.9606 8.58023C22.6066 7.93461 22.9622 7.07458 22.9622 6.15935C22.9622 5.24412 22.607 4.38369 21.9606 3.73807Z" fill="#EDA900" stroke="#DC2D2D" stroke-width="0.5"/>
<path d="M2.92046 3.39321C3.07687 3.2368 3.07687 2.984 2.92046 2.82759C2.76406 2.67118 2.51125 2.67118 2.35484 2.82759C0.548385 4.63405 0.548385 7.57335 2.35484 9.37981C2.43285 9.45781 2.53525 9.49701 2.63765 9.49701C2.74006 9.49701 2.84246 9.45781 2.92046 9.37981C3.07687 9.2234 3.07687 8.97059 2.92046 8.81419C1.42561 7.31974 1.42561 4.88806 2.92046 3.39321Z" fill="#EDA900" stroke="#DC2D2D" stroke-width="0.5"/>
<path d="M4.60503 3.62772C4.44863 3.47131 4.19582 3.47131 4.03941 3.62772C3.39339 4.27334 3.03778 5.13337 3.03778 6.0486C3.03778 6.96383 3.39339 7.82386 4.03941 8.46988C4.11742 8.54788 4.21982 8.58708 4.32222 8.58708C4.42463 8.58708 4.52703 8.54788 4.60503 8.46988C4.76144 8.31348 4.76144 8.06067 4.60503 7.90426C4.11022 7.40945 3.83781 6.75022 3.83781 6.0486C3.83781 5.34698 4.10982 4.68816 4.60503 4.19334C4.76104 4.03733 4.76104 3.78413 4.60503 3.62772Z" fill="#EDA900" stroke="#DC2D2D" stroke-width="0.5"/>
</svg>
