<svg width="24" height="24" viewBox="0 0 24 24" fill="none" xmlns="http://www.w3.org/2000/svg">
<path d="M0.829028 14.0439H2.78392V21.8635C2.78392 22.3242 3.16093 22.7013 3.62172 22.7013H9.34672C9.80752 22.7013 10.1845 22.3242 10.1845 21.8635V16.1385H13.6754V21.8635C13.6754 22.3242 14.0524 22.7013 14.5132 22.7013H19.9589C20.4197 22.7013 20.7967 22.3242 20.7967 21.8635V14.0439H23.1705C23.5056 14.0439 23.8128 13.8345 23.9384 13.5273C24.0641 13.2201 23.9943 12.8571 23.7569 12.6197L12.8376 1.54673C12.5164 1.22556 11.9858 1.21161 11.6646 1.53279L0.256563 12.6057C0.00522181 12.8431 -0.0646115 13.2061 0.0610589 13.5273C0.186729 13.8484 0.493907 14.0439 0.829028 14.0439ZM12.2231 3.32007L21.1597 12.3683H19.9588C19.498 12.3683 19.121 12.7454 19.121 13.2061V21.0257H15.3509V15.3006C15.3509 14.8399 14.9739 14.4628 14.5131 14.4628H9.34672C8.88593 14.4628 8.50892 14.8399 8.50892 15.3006V21.0257H4.45952V13.2061C4.45952 12.7454 4.08251 12.3683 3.62172 12.3683H2.89564L12.2231 3.32007Z" fill="white"/>
</svg>
