<svg width="11" height="19" viewBox="0 0 11 19" fill="none" xmlns="http://www.w3.org/2000/svg">
<path d="M4.18359 13.1953C4.19922 12.2656 4.30469 11.5312 4.5 10.9922C4.69531 10.4531 5.09375 9.85547 5.69531 9.19922L7.23047 7.61719C7.88672 6.875 8.21484 6.07812 8.21484 5.22656C8.21484 4.40625 8 3.76562 7.57031 3.30469C7.14062 2.83594 6.51562 2.60156 5.69531 2.60156C4.89844 2.60156 4.25781 2.8125 3.77344 3.23438C3.28906 3.65625 3.04688 4.22266 3.04688 4.93359H0.878906C0.894531 3.66797 1.34375 2.64844 2.22656 1.875C3.11719 1.09375 4.27344 0.703125 5.69531 0.703125C7.17188 0.703125 8.32031 1.10156 9.14062 1.89844C9.96875 2.6875 10.3828 3.77344 10.3828 5.15625C10.3828 6.52344 9.75 7.87109 8.48438 9.19922L7.20703 10.4648C6.63672 11.0977 6.35156 12.0078 6.35156 13.1953H4.18359ZM4.08984 16.9102C4.08984 16.5586 4.19531 16.2656 4.40625 16.0312C4.625 15.7891 4.94531 15.668 5.36719 15.668C5.78906 15.668 6.10938 15.7891 6.32812 16.0312C6.54688 16.2656 6.65625 16.5586 6.65625 16.9102C6.65625 17.2617 6.54688 17.5547 6.32812 17.7891C6.10938 18.0156 5.78906 18.1289 5.36719 18.1289C4.94531 18.1289 4.625 18.0156 4.40625 17.7891C4.19531 17.5547 4.08984 17.2617 4.08984 16.9102Z" fill="white"/>
</svg>
