<svg width="24" height="24" viewBox="0 0 24 24" fill="none" xmlns="http://www.w3.org/2000/svg">
<g clip-path="url(#clip0_7_158)">
<path d="M23.0092 0H0.990808C0.652852 0 0.376343 0.276509 0.376343 0.614466C0.376343 0.952422 0.652852 1.22893 0.990808 1.22893H2.31703V23.3702C2.31703 23.5955 2.43992 23.8054 2.63962 23.913C2.83933 24.0205 3.07999 24.0102 3.26945 23.8822L5.93726 22.1054L8.6153 23.8873C8.82013 24.0256 9.09151 24.0256 9.29634 23.8873L11.9641 22.1105L14.6422 23.8925C14.847 24.0307 15.1184 24.0307 15.3232 23.8925L17.991 22.1156L20.6691 23.8976C20.7715 23.9642 20.8893 24 21.007 24C21.1043 24 21.2067 23.9744 21.2989 23.9283C21.4986 23.8208 21.6215 23.6108 21.6215 23.3855L21.6113 1.24429H23.0092C23.3471 1.24429 23.6236 0.967783 23.6236 0.629827C23.6236 0.291871 23.3471 0 23.0092 0ZM20.3977 22.2232L18.3341 20.8509C18.1293 20.7126 17.8579 20.7126 17.6531 20.8509L14.9853 22.6328L12.3072 20.8509C12.1024 20.7126 11.831 20.7126 11.6262 20.8509L8.95838 22.6277L6.28033 20.8509C6.07551 20.7126 5.80412 20.7126 5.5993 20.8509L3.54596 22.218V1.22381H20.3926L20.3977 22.2232Z" fill="#DC2D2D" stroke="#DC2D2D" stroke-width="0.2"/>
<path d="M6.37252 9.81098H12.809C13.147 9.81098 13.4235 9.53447 13.4235 9.19651C13.4235 8.85856 13.147 8.58205 12.809 8.58205H6.37252C6.03457 8.58205 5.75806 8.85856 5.75806 9.19651C5.75806 9.53447 6.02945 9.81098 6.37252 9.81098Z" fill="#DC2D2D" stroke="#DC2D2D" stroke-width="0.2"/>
<path d="M6.37252 11.9462H11.1961C11.534 11.9462 11.8105 11.6697 11.8105 11.3317C11.8105 10.9938 11.534 10.7173 11.1961 10.7173H6.37252C6.03457 10.7173 5.75806 10.9938 5.75806 11.3317C5.75806 11.6697 6.02945 11.9462 6.37252 11.9462Z" fill="#DC2D2D" stroke="#DC2D2D" stroke-width="0.2"/>
<path d="M16.0247 9.81098H17.6326C17.9705 9.81098 18.247 9.53447 18.247 9.19651C18.247 8.85856 17.9705 8.58205 17.6326 8.58205H16.0247C15.6868 8.58205 15.4102 8.85856 15.4102 9.19651C15.4102 9.53447 15.6816 9.81098 16.0247 9.81098Z" fill="#DC2D2D" stroke="#DC2D2D" stroke-width="0.2"/>
<path d="M16.0247 11.9462H17.6326C17.9705 11.9462 18.247 11.6697 18.247 11.3317C18.247 10.9938 17.9705 10.7173 17.6326 10.7173H16.0247C15.6868 10.7173 15.4102 10.9938 15.4102 11.3317C15.4102 11.6697 15.6816 11.9462 16.0247 11.9462Z" fill="#DC2D2D" stroke="#DC2D2D" stroke-width="0.2"/>
<path d="M6.37252 4.87991H12.809C13.147 4.87991 13.4235 4.6034 13.4235 4.26544C13.4235 3.92749 13.147 3.65098 12.809 3.65098H6.37252C6.03457 3.65098 5.75806 3.92749 5.75806 4.26544C5.75806 4.6034 6.02945 4.87991 6.37252 4.87991Z" fill="#DC2D2D" stroke="#DC2D2D" stroke-width="0.2"/>
<path d="M6.37252 7.01003H11.1961C11.534 7.01003 11.8105 6.73352 11.8105 6.39556C11.8105 6.05761 11.534 5.7811 11.1961 5.7811H6.37252C6.03457 5.7811 5.75806 6.05761 5.75806 6.39556C5.75806 6.73352 6.02945 7.01003 6.37252 7.01003Z" fill="#DC2D2D" stroke="#DC2D2D" stroke-width="0.2"/>
<path d="M16.0247 4.87991H17.6326C17.9705 4.87991 18.247 4.6034 18.247 4.26544C18.247 3.92749 17.9705 3.65098 17.6326 3.65098H16.0247C15.6868 3.65098 15.4102 3.92749 15.4102 4.26544C15.4102 4.6034 15.6816 4.87991 16.0247 4.87991Z" fill="#DC2D2D" stroke="#DC2D2D" stroke-width="0.2"/>
<path d="M16.0247 7.01003H17.6326C17.9705 7.01003 18.247 6.73352 18.247 6.39556C18.247 6.05761 17.9705 5.7811 17.6326 5.7811H16.0247C15.6868 5.7811 15.4102 6.05761 15.4102 6.39556C15.4102 6.73352 15.6816 7.01003 16.0247 7.01003Z" fill="#DC2D2D" stroke="#DC2D2D" stroke-width="0.2"/>
<path d="M6.37252 14.8035H12.809C13.147 14.8035 13.4235 14.527 13.4235 14.189C13.4235 13.8511 13.147 13.5746 12.809 13.5746H6.37252C6.03457 13.5746 5.75806 13.8511 5.75806 14.189C5.75806 14.527 6.02945 14.8035 6.37252 14.8035Z" fill="#DC2D2D" stroke="#DC2D2D" stroke-width="0.2"/>
<path d="M6.37252 16.9336H11.1961C11.534 16.9336 11.8105 16.6571 11.8105 16.3192C11.8105 15.9812 11.534 15.7047 11.1961 15.7047H6.37252C6.03457 15.7047 5.75806 15.9812 5.75806 16.3192C5.75806 16.6571 6.02945 16.9336 6.37252 16.9336Z" fill="#DC2D2D" stroke="#DC2D2D" stroke-width="0.2"/>
<path d="M16.0247 14.8035H17.6326C17.9705 14.8035 18.247 14.527 18.247 14.189C18.247 13.8511 17.9705 13.5746 17.6326 13.5746H16.0247C15.6868 13.5746 15.4102 13.8511 15.4102 14.189C15.4102 14.527 15.6816 14.8035 16.0247 14.8035Z" fill="#DC2D2D" stroke="#DC2D2D" stroke-width="0.2"/>
<path d="M16.0247 16.9336H17.6326C17.9705 16.9336 18.247 16.6571 18.247 16.3192C18.247 15.9812 17.9705 15.7047 17.6326 15.7047H16.0247C15.6868 15.7047 15.4102 15.9812 15.4102 16.3192C15.4102 16.6571 15.6816 16.9336 16.0247 16.9336Z" fill="#DC2D2D" stroke="#DC2D2D" stroke-width="0.2"/>
</g>
<defs>
<clipPath id="clip0_7_158">
<rect width="24" height="24" fill="white"/>
</clipPath>
</defs>
</svg>
