<svg width="24" height="24" viewBox="0 0 24 24" fill="none" xmlns="http://www.w3.org/2000/svg">
<path d="M10.2188 0H0.9375C0.419678 0 0 0.419678 0 0.9375V10.2188C0 10.7366 0.419678 11.1562 0.9375 11.1562H10.2188C10.7366 11.1562 11.1562 10.7366 11.1562 10.2188V0.9375C11.1562 0.419678 10.7366 0 10.2188 0ZM9.28125 9.28125H1.875V1.875H9.28125V9.28125Z" fill="#DC2D2D"/>
<path d="M23.0625 0H13.7812C13.2634 0 12.8438 0.419678 12.8438 0.9375V10.2188C12.8438 10.7366 13.2634 11.1562 13.7812 11.1562H23.0625C23.5803 11.1562 24 10.7366 24 10.2188V0.9375C24 0.419678 23.5803 0 23.0625 0ZM22.125 9.28125H14.7188V1.875H22.125V9.28125Z" fill="#DC2D2D"/>
<path d="M10.2188 12.8438H0.9375C0.419678 12.8438 0 13.2634 0 13.7812V23.0625C0 23.5803 0.419678 24 0.9375 24H10.2188C10.7366 24 11.1562 23.5803 11.1562 23.0625V13.7812C11.1562 13.2634 10.7366 12.8438 10.2188 12.8438ZM9.28125 22.125H1.875V14.7188H9.28125V22.125Z" fill="#DC2D2D"/>
<path d="M23.0625 12.8438H18.4219C17.9041 12.8438 17.4844 13.2634 17.4844 13.7812V17.4844H13.7812C13.2634 17.4844 12.8438 17.9041 12.8438 18.4219V23.0625C12.8438 23.5803 13.2634 24 13.7812 24H18.4219C18.9397 24 19.3594 23.5803 19.3594 23.0625V19.3594H23.0625C23.5803 19.3594 24 18.9397 24 18.4219V13.7812C24 13.2634 23.5803 12.8438 23.0625 12.8438ZM17.4844 22.125H14.7188V19.3594H17.4844V22.125ZM22.125 17.4844H19.3594V14.7188H22.125V17.4844Z" fill="#DC2D2D"/>
<path d="M6.75 18.4219C6.75 19.0692 6.2254 19.5938 5.57812 19.5938C4.93085 19.5938 4.40625 19.0692 4.40625 18.4219C4.40625 17.7746 4.93085 17.25 5.57812 17.25C6.2254 17.25 6.75 17.7746 6.75 18.4219Z" fill="#DC2D2D"/>
<path d="M6.75 5.57812C6.75 6.2254 6.2254 6.75 5.57812 6.75C4.93085 6.75 4.40625 6.2254 4.40625 5.57812C4.40625 4.93085 4.93085 4.40625 5.57812 4.40625C6.2254 4.40625 6.75 4.93085 6.75 5.57812Z" fill="#DC2D2D"/>
<path d="M19.5938 5.57812C19.5938 6.2254 19.0692 6.75 18.4219 6.75C17.7746 6.75 17.25 6.2254 17.25 5.57812C17.25 4.93085 17.7746 4.40625 18.4219 4.40625C19.0692 4.40625 19.5938 4.93085 19.5938 5.57812Z" fill="#DC2D2D"/>
</svg>
