<svg width="22" height="22" viewBox="0 0 22 22" fill="none" xmlns="http://www.w3.org/2000/svg">
<g clip-path="url(#clip0_7_262)">
<path d="M21.6188 8.62245L20.4174 9.31616C19.1214 10.0644 19.1202 11.9351 20.4174 12.6838L21.6188 13.3775C21.927 13.5556 22.0325 13.9497 21.8546 14.2579L19.2661 18.7419C19.0884 19.0499 18.6939 19.1558 18.3856 18.9779L17.1841 18.2842C15.8884 17.5361 14.2681 18.47 14.2681 19.968V21.3555C14.2681 21.7115 13.9796 22 13.6236 22H8.44637C8.09053 22 7.80184 21.7115 7.80184 21.3555V19.968C7.80184 18.4715 6.18312 17.5353 4.88584 18.2842L3.68439 18.9779C3.37639 19.1558 2.98195 19.0503 2.80387 18.7419L0.215335 14.2579C0.0374177 13.9497 0.142993 13.5555 0.45116 13.3775L1.65261 12.6838C2.94855 11.9356 2.94973 10.0649 1.65261 9.31616L0.451328 8.62245C0.142993 8.44437 0.0374177 8.05026 0.215335 7.7421L2.80387 3.25807C2.98162 2.95007 3.37606 2.84399 3.68439 3.02208L4.88584 3.71579C6.18144 4.46405 7.80184 3.53015 7.80184 2.03195V0.644531C7.80184 0.288528 8.09037 0 8.44637 0H13.6234C13.9794 0 14.268 0.288528 14.268 0.644531V2.03195C14.268 3.52814 15.8867 4.46489 17.1841 3.71579L18.3856 3.02208C18.6936 2.84416 19.088 2.94974 19.2659 3.25807L21.8546 7.7421C22.0325 8.05026 21.927 8.44437 21.6188 8.62245ZM18.4718 4.46069L17.8287 4.83214C15.6733 6.07672 12.9791 4.52296 12.9791 2.03195V1.28906H9.0909V2.03195C9.0909 4.52078 6.3983 6.07773 4.24131 4.83214L3.59812 4.46069L1.65395 7.82837L2.29714 8.19981C4.45229 9.44406 4.45447 12.5546 2.29731 13.8002L1.65395 14.1716L3.59812 17.5393L4.24131 17.1679C6.39662 15.9233 9.0909 17.477 9.0909 19.968V20.7109H12.9791V19.968C12.9791 17.4792 15.6715 15.9223 17.8287 17.1679L18.4718 17.5393L20.416 14.1716L19.7728 13.8002C17.6177 12.5559 17.6155 9.4454 19.7727 8.19981L20.416 7.82837L18.4718 4.46069Z" fill="white"/>
<path d="M11.0351 15.5117C8.54747 15.5117 6.52374 13.4878 6.52374 11C6.52374 8.51218 8.54747 6.48828 11.0351 6.48828C13.5226 6.48828 15.5463 8.51218 15.5463 11C15.5463 13.4878 13.5226 15.5117 11.0351 15.5117ZM11.0351 7.77734C9.2583 7.77734 7.81281 9.22301 7.81281 11C7.81281 12.777 9.2583 14.2227 11.0351 14.2227C12.8118 14.2227 14.2573 12.777 14.2573 11C14.2573 9.22301 12.8118 7.77734 11.0351 7.77734Z" fill="white"/>
</g>
<defs>
<clipPath id="clip0_7_262">
<rect width="22" height="22" fill="white" transform="matrix(1 0 0 -1 0 22)"/>
</clipPath>
</defs>
</svg>
