<svg width="24" height="24" viewBox="0 0 24 24" fill="none" xmlns="http://www.w3.org/2000/svg">
<g clip-path="url(#clip0_7_107)">
<path d="M23.7491 8.82246L17.749 2.82235C17.4142 2.48766 16.8715 2.48776 16.5368 2.82255C16.3761 2.98327 16.2859 3.20114 16.2858 3.4284V5.99987H10.2857C9.81228 5.99987 9.42852 6.38364 9.42852 6.85705C9.42852 7.33046 9.81228 7.71422 10.2857 7.71422H17.143C17.6164 7.71422 18.0001 7.33046 18.0001 6.85705V5.49753L21.9311 9.42847L18.0001 13.3594V11.9999C18.0001 11.5265 17.6164 11.1428 17.143 11.1428H7.71422V8.57129C7.71412 8.09788 7.33026 7.71422 6.8569 7.71432C6.62968 7.71437 6.41176 7.80462 6.25104 7.96529L0.250982 13.9654C-0.0836607 14.3001 -0.0836607 14.8427 0.250982 15.1774L6.25109 21.1775C6.41181 21.3383 6.62978 21.4286 6.8571 21.4287C6.96975 21.429 7.0814 21.4069 7.18536 21.3636C7.50559 21.2308 7.71432 20.9182 7.71422 20.5715V18H13.7143C14.1877 18 14.5715 17.6163 14.5715 17.1429C14.5715 16.6695 14.1877 16.2857 13.7143 16.2857H6.8571C6.38369 16.2857 5.99992 16.6695 5.99992 17.1429V18.5023L2.06899 14.5714L5.99992 10.6405V11.9999C5.99992 12.4733 6.38369 12.8571 6.8571 12.8571H16.2858V15.4286C16.2859 15.902 16.6698 16.2857 17.1431 16.2856C17.3703 16.2855 17.5883 16.1952 17.749 16.0346L23.7491 10.0345C24.0837 9.69973 24.0837 9.15716 23.7491 8.82246Z" fill="#DC2D2D"/>
</g>
<defs>
<clipPath id="clip0_7_107">
<rect width="24" height="24" fill="white"/>
</clipPath>
</defs>
</svg>
